# xmcd
#
# Track frame offsets:
#	150
#	19854
#	35420
#	66731
#	87458
#	111552
#	124913
#	146188
#	168712
#	186471
#
# Disc length: 2794 seconds
#
# Revision: 0
# Processed by: cddbd v1.5.2PL0 Copyright (c) Steve Scherf et al.
# Submitted via: dBpowerAMP V4.0
#
DISCID=a40ae80a
DTITLE=Christian and Karla-Therese Kjellvander - Santiago Alquimista Et Al:Live 08-04
DYEAR=2008
DGENRE=Country
TTITLE0=Poppies And Peonies
TTITLE1=Two Souls
TTITLE2=Allelujah
TTITLE3=When The Morning Comes
TTITLE4=Live Ones
TTITLE5=Drag The Dirt In
TTITLE6=Drunken Hands
TTITLE7=Sons Of The Coast
TTITLE8=Oh Night
TTITLE9=Southern Accents
EXTD=
EXTT0=
EXTT1=
EXTT2=
EXTT3=
EXTT4=
EXTT5=
EXTT6=
EXTT7=
EXTT8=
EXTT9=
PLAYORDER=
